# xmcd
#
# Track frame offsets: 
#        182
#        11652
#        24330
#        37125
#        53322
#        70227
#        84860
#        100472
#        112090
#        127270
#        144860
#        155050
#        174242
#        189962
#        197295
#        210532
#        220385
#        232720
#
# Disc length: 3343 seconds
#
# Revision: 0
# Processed by: cddbd v1.5.2PL0 Copyright (c) Steve Scherf et al.
# Submitted via: ExactAudioCopy v1.3
#
DISCID=eb0d0d12
DTITLE=Various Artist - The La Salle Chicago Blues Recordings, Vol.1
DYEAR=1900
DGENRE=Blues
TTITLE0=Little Brother Montgomery - No Special Rider
TTITLE1=Sunnyland Slim - One Room Country Shack
TTITLE2=Little Brother Montgomery - I Keep On Drinkin'
TTITLE3=Sunnyland Slim - Prison Bound
TTITLE4=Little Brother Montgomery - Pinetop's Boogie Woogie
TTITLE5=Little Brother Montgomery - My Electrical Invention Blues
TTITLE6=Little Brother Montgomery - Cow Cow Blues
TTITLE7=Sunnyland Slim - Brownskin Woman
TTITLE8=Sunnyland Slim - La Salle Street Boogie
TTITLE9=Little Brother Montgomery - New Vicksburg Blues
TTITLE10=Little Brother Montgomery - Farrish St. Jive
TTITLE11=Sunnyland Slim - Everytime I Get To Drinkin'
TTITLE12=Sunnyland Slim - Got The Blues About My Baby
TTITLE13=Little Brother Montgomery - Bob Martin Blues
TTITLE14=Little Brother Montgomery - Chinese Man Blues
TTITLE15=Little Brother Montgomery - Trembling Blues
TTITLE16=Sunnyland Slim - Devil Is A Busy Man
TTITLE17=Little Brother Montgomery - That's Why I Keep On Drinkin'
EXTD=
EXTT0=
EXTT1=
EXTT2=
EXTT3=
EXTT4=
EXTT5=
EXTT6=
EXTT7=
EXTT8=
EXTT9=
EXTT10=
EXTT11=
EXTT12=
EXTT13=
EXTT14=
EXTT15=
EXTT16=
EXTT17=
PLAYORDER=
